<?xml version="1.0" encoding="iso-8859-1"?>
<!-- Generator: Adobe Illustrator 16.0.0, SVG Export Plug-In . SVG Version: 6.00 Build 0)  -->
<!DOCTYPE svg PUBLIC "-//W3C//DTD SVG 1.1//EN" "http://www.w3.org/Graphics/SVG/1.1/DTD/svg11.dtd">
<svg xmlns="http://www.w3.org/2000/svg" xmlns:xlink="http://www.w3.org/1999/xlink" version="1.1" id="Capa_1" x="0px" y="0px" width="512px" height="512px" viewBox="0 0 923.578 923.578" style="enable-background:new 0 0 923.578 923.578;" xml:space="preserve">
<g>
	<g>
		<path d="M803.012,395.697c-2.771-46.087-12.834-131.692-31.672-173.865c-20.173-45.158-48.691-84.812-84.525-118.787    c-43.667-41.403-93.922-70.67-150.682-87.586c-148.894-44.373-312.192,8.957-406.55,132.011    c-39.3,51.252-63.597,109.053-72.864,173.106c-8.864,61.265-3.312,121.185,17.319,179.479    c23.443,66.241,62.742,121.533,116.973,166.255l-0.507,212.16c-0.06,24.896,20.105,45.108,45,45.108h304.884    c24.853,0,45-20.147,45-45v-68.864c2.08-0.018,135.62,0,135.62,0c18.416,0,34.725-11.882,40.369-29.411    c5.668-17.598,12.681-43.549,17.56-62.202c3.933-15.031,5.817-30.523,5.595-46.062l-0.872-60.513    c-0.008-3.358,0.707-5.265,4.226-6.556c10.156-3.729,42.879-15.331,66.635-23.731c13.837-4.895,20.338-20.729,13.929-33.934    C836.465,481.421,803.012,395.697,803.012,395.697z M452.833,514.438v37.035c0,11.973-9.704,21.676-21.676,21.676h-18.683    c-11.971,0-21.675-9.703-21.675-21.676v-33.711c-25.815-3.17-56.814-12.636-82.399-29.606    c-9.334-6.192-12.022-19.016-5.999-28.457l19.285-30.231c6.088-9.543,18.736-12.509,28.352-6.535    c22.171,13.773,40.882,19.506,59.594,19.506c27.692,0,38.771-9.415,38.771-31.016c0-44.309-142.896-50.402-142.896-147.328    c0-55.939,31.569-94.71,85.295-106.341v-36.84c0-11.466,9.295-20.762,20.761-20.762h20.51c11.466,0,20.761,9.295,20.761,20.762    v35.732c27.17,4.312,49.302,16.012,68.228,31.962c8.893,7.495,10.017,20.777,2.396,29.563l-20.905,24.104    c-6.985,8.054-18.968,9.668-27.691,3.543c-14.204-9.97-27.704-14.954-43.073-14.954c-23.815,0-35.446,6.646-35.446,28.801    c0,42.093,142.896,44.309,142.896,145.112C539.235,458.499,510.989,500.592,452.833,514.438z" fill="#d1d1d1"/>
	</g>
</g>
<g>
</g>
<g>
</g>
<g>
</g>
<g>
</g>
<g>
</g>
<g>
</g>
<g>
</g>
<g>
</g>
<g>
</g>
<g>
</g>
<g>
</g>
<g>
</g>
<g>
</g>
<g>
</g>
<g>
</g>
</svg>
